<svg width="338" height="40" viewBox="0 0 338 40" fill="none" xmlns="http://www.w3.org/2000/svg">
<path d="M20.1248 12.32V28.12C20.1248 30.44 20.0048 31.04 19.3648 31.56C18.6448 32.24 17.0848 32.48 14.0048 32.48C11.0048 32.48 9.60484 32.24 8.96484 31.6C8.40484 31.04 8.28484 30.4 8.28484 27.48H0.164844C0.0848438 29.28 0.0848438 29.52 0.0848438 30.28C0.0848438 34.04 0.564844 35.8 1.88484 37.12C3.68484 38.84 6.68484 39.4 14.5648 39.4C22.0448 39.4 24.7648 38.8 26.5248 36.8C27.8448 35.24 28.2448 33.32 28.2448 28.28V12.32H20.1248ZM31.6848 12.32V24.6C31.7248 28.92 31.7248 28.92 31.7648 29.8C31.9648 33.72 32.4048 35.36 33.7248 36.72C35.7248 38.84 38.9248 39.4 49.1248 39.4C55.3248 39.4 58.0048 39.24 60.4048 38.76C63.4448 38.12 65.4848 36 65.9248 32.96C66.1648 31.08 66.2048 30.64 66.3248 24.6V12.32H58.2048V24.6C58.2048 25.16 58.1648 26.44 58.1248 27.36C58.0048 29.88 57.8048 30.6 57.1648 31.28C56.2848 32.24 54.6048 32.48 49.0048 32.48C42.0848 32.48 40.5248 32.04 40.0848 29.92C39.8848 28.84 39.8848 28.8 39.8048 24.6V12.32H31.6848ZM69.9698 12.32V39H97.4498V32.2H78.4898V12.32H69.9698ZM99.3448 12.32V39H107.865V12.32H99.3448ZM140.53 39H149.77L135.81 12.32H123.17L109.05 39H118.33L120.61 34.48H138.25L140.53 39ZM135.41 28.64H123.49L128.65 18.52H130.25L135.41 28.64ZM135.49 0.279998L125.57 7.36L127.21 10.52L138.61 6.52L135.49 0.279998ZM150.985 12.32V39H159.265L159.065 19.08H159.945L173.985 39H188.105V12.32H179.825L180.025 32.2H179.185L165.225 12.32H150.985ZM201.845 39H209.965V32.24H221.445C224.805 32.24 225.405 32.32 225.965 32.96C226.605 33.64 226.765 34.6 226.765 37.6V39H234.765V36.52C234.925 30.36 234.205 29.16 230.085 28.68C231.685 28.44 232.445 28.16 233.205 27.56C234.645 26.48 235.045 24.96 235.045 21C235.045 16.36 234.445 14.6 232.405 13.36C230.685 12.32 230.685 12.32 221.485 12.32H201.845V39ZM209.965 25.56V19H221.405C225.085 19.04 225.205 19.04 225.765 19.28C226.605 19.64 226.925 20.4 226.925 22.2C226.925 23.88 226.685 24.68 226.045 25.08C225.485 25.48 225.485 25.48 221.405 25.56H209.965ZM255.777 11.92C244.617 11.92 242.137 12.2 240.097 13.76C238.057 15.32 237.457 18.04 237.457 25.48C237.457 33.32 238.017 35.96 240.097 37.56C242.137 39.12 244.617 39.4 255.857 39.4C266.897 39.4 269.417 39.12 271.457 37.56C273.497 36 274.097 33.32 274.097 25.64C274.097 18 273.497 15.32 271.457 13.76C269.417 12.2 266.937 11.92 255.777 11.92ZM255.777 18.84C263.217 18.84 264.097 18.96 265.017 20.04C265.737 20.92 265.977 22.44 265.977 26.4C265.977 29.64 265.697 30.8 264.777 31.52C263.697 32.32 262.377 32.48 255.857 32.48C249.137 32.48 247.857 32.36 246.777 31.52C245.817 30.76 245.577 29.68 245.577 26.36C245.577 22.96 245.737 21.44 246.217 20.52C247.017 18.96 247.777 18.84 255.777 18.84ZM277.314 12.32V39H306.994V32.6H285.314V28.36H305.754V22.48H285.314V18.6H306.834V12.32H277.314ZM309.54 12.32V39H337.02V32.2H318.06V12.32H309.54Z" fill="white"/>
</svg>
